# xmcd
#
# Track frame offsets:
#	150
#	16650
#	28275
#	52012
#	88162
#	99487
#	132562
#	148537
#	173025
#
# Disc length: 2533 seconds
# Revision: 0
# Processed by: cddbd v1.5.2PL0 Copyright (c) Steve Scherf et al.
# Submitted via: dBpowerAMP V12.0
#
DISCID=7809e309
DTITLE=Norman Blake - Blackberry Blossom
DYEAR=1977
DGENRE=Country
TTITLE0=Are You From Dixie
TTITLE1=The Rights Of Man Hornpipe
TTITLE2=The Highland Light
TTITLE3=Railroad Blues
TTITLE4=Foggy Valley
TTITLE5=Lonesome Jenny
TTITLE6=Blackberry Blossom
TTITLE7=D Medley
TTITLE8=Jerusalem Ridge
EXTD=
EXTT0=
EXTT1=
EXTT2=
EXTT3=
EXTT4=
EXTT5=
EXTT6=
EXTT7=
EXTT8=
PLAYORDER=
